<svg id="Layer_1" data-name="Layer 1" xmlns="http://www.w3.org/2000/svg" xmlns:xlink="http://www.w3.org/1999/xlink" viewBox="0 0 732.75 407.69"><defs><style>.cls-1{fill:none;}.cls-2{font-size:42.34px;fill:#737373;font-family:HelveticaNeue-BoldItalic, Helvetica Neue;font-weight:700;font-style:italic;letter-spacing:0.05em;}.cls-3{letter-spacing:0.16em;}.cls-4{letter-spacing:0.18em;}.cls-5{letter-spacing:0.16em;}.cls-6{clip-path:url(#clip-path);}.cls-7{fill:url(#linear-gradient);}</style><clipPath id="clip-path"><path class="cls-1" d="M460.07,237.55h0c-.6-.3-1.19-.58-1.78-.86-9.91,10.4-28.51,28.95-40.7,31.05a29.18,29.18,0,0,1-9.52-9.17,2.49,2.49,0,0,1-.39-.14s.1,0,.31,0c-.4-.6-.79-1.21-1.18-1.87-3.28-5.59,3.37-.47,13.4-3.8,11.06-3.67,21.73-12.18,28.72-18.33-.11,0,.38-.27.28-.28a78,78,0,0,0,14.84-25.11h0a34.82,34.82,0,0,0,2.5-12.92,35.25,35.25,0,0,0-2.28-12.21l-.13-.36-.19-.39A46.54,46.54,0,0,0,434.65,158a52.38,52.38,0,0,0-15.48-2.42,54.11,54.11,0,0,0-24.88,6.29l-.21.11-.21.12c-15,8.49-26.24,20.5-32.87,35.34a88.66,88.66,0,0,0-8.29,37.13,91.41,91.41,0,0,0,1.89,18.24c-.3-.6,2,7.44,2,7,4,10.89,11.68,20.54,22.28,28.43a65.28,65.28,0,0,0,39.92,13.23c2.25,0,4.16-.14,5.87-.25l.37,0,.37-.05a78,78,0,0,0,41.41-18,45.24,45.24,0,0,0,9.43-9.88,21.88,21.88,0,0,0,4-12A20.45,20.45,0,0,0,474.07,247C470.39,243.19,465.69,240.23,460.07,237.55Zm-36.14-46.49a44.51,44.51,0,0,1-10,18.22A37.21,37.21,0,0,1,398,220.15C402.86,208.38,411.51,198.64,423.93,191.06Zm122.62,90.1a39.51,39.51,0,0,1-10.89-20.73l0-.21,0-.24a295.73,295.73,0,0,1-6.47-102.42l0-.2v-.22q0-.39.06-.72l1.14,0h.15q18.43-.68,51.4-1.35h1.5a13.33,13.33,0,0,1,5,.82h0l.13,0a20.94,20.94,0,0,0,7.58,1.62,15,15,0,0,0,5.62-1.08,14.82,14.82,0,0,0,4.39-2.76,12.22,12.22,0,0,0,4.26-9,13.23,13.23,0,0,0-.85-4.42,31.9,31.9,0,0,0-1.39-3.26l0-.07-.08-.16a23.45,23.45,0,0,0-5.55-7.07l-.1-.13-.38-.36a52.75,52.75,0,0,0-37.62-15H564c-9.4.25-18.35.44-26.93.57a45,45,0,0,1,4.19-8.64h0a18.81,18.81,0,0,0,3.46-10.31,16.92,16.92,0,0,0-2-7.79,26.62,26.62,0,0,0-4.48-6h0a.63.63,0,0,0-.11-.12l-.09-.1h0a48.17,48.17,0,0,0-13.13-9.88h0l-.07,0,0,0h0a43.6,43.6,0,0,0-6-2.7,22.21,22.21,0,0,0-7.29-1.37,15.91,15.91,0,0,0-3.53.43c-.76.18-1.39.35-2.05.53h0a12.9,12.9,0,0,0-5.35,2.91A19.39,19.39,0,0,0,497,76.13,48.62,48.62,0,0,0,494.39,81l0,.11a132.06,132.06,0,0,0-10.59,36.06l0,.12,0,.18a.34.34,0,0,1,0,.1l-.22,0h0l-30.79,2h0a24.37,24.37,0,0,0-9.87,2.27,13.55,13.55,0,0,0-5,4.31,11.2,11.2,0,0,0-2,6.38,13.48,13.48,0,0,0,1.59,6.17,24.37,24.37,0,0,0,2.89,4.33h0l.08.09.08.1h0a46,46,0,0,0,13.53,12A35.49,35.49,0,0,0,471.48,160a44.9,44.9,0,0,0,6-.41h0c.63-.07,1.39-.13,2.25-.17l.1,25.77v0a263.45,263.45,0,0,0,4.41,48.4h0c2.52,16.43,7.12,30.56,14.15,42.33a72.42,72.42,0,0,0,28.56,27.47,29.63,29.63,0,0,0,5.1,2.35,19.75,19.75,0,0,0,6.33,1.13,15.48,15.48,0,0,0,11.14-4.65l.29-.3.29-.34a13,13,0,0,0,3.18-8.27,13.41,13.41,0,0,0-2.58-7.62A25.36,25.36,0,0,0,546.55,281.16ZM687.77,171c-3.49-4.09-8.08-7.44-13.64-10.52l-.09,0-.13-.07a43.08,43.08,0,0,0-5.8-2.57,21.09,21.09,0,0,0-7-1.27,15.08,15.08,0,0,0-3.6.45c-.8.19-1.48.38-2.16.59a12.59,12.59,0,0,0-5.1,3,19.16,19.16,0,0,0-1.41,1.53l-.17-.09-.09,0a56.82,56.82,0,0,0-25.11-6.34c-11.52,0-22.39,4.38-31.58,11.68l-.11.08-.08.07c-14.48,12-25.56,25.62-33,40.79a112.53,112.53,0,0,0-11.14,49.55V258c.06,9.75,4.53,18.8,12,25.47a50.32,50.32,0,0,0,12.79,9.61,34,34,0,0,0,15.48,3.81,32.89,32.89,0,0,0,14.1-3.5c6.63-3.19,13.08-8,20.13-14.56q6.79-6.31,14.31-14.79a87,87,0,0,0,3.5,14.51l.06.17.08.21a37.81,37.81,0,0,0,9.79,14.41,44.2,44.2,0,0,0,15.52,9h0l.07,0,.08,0h0a25.41,25.41,0,0,0,8.3,1.63,15.81,15.81,0,0,0,5.07-.81,12.54,12.54,0,0,0,6.85-5.49,12.2,12.2,0,0,0,1.59-6.24,19.58,19.58,0,0,0-.84-5.61h0A93.34,93.34,0,0,1,683.31,260a253.77,253.77,0,0,1,9.22-68.07l0-.05,0-.11a26.2,26.2,0,0,0,.89-6.39A22.18,22.18,0,0,0,687.77,171Zm-60.13,35.76c-6.52,8.61-13.42,17-20.82,25.36s-13.05,13.93-17.19,16.76q1.88-11.39,10.16-25.13a108.23,108.23,0,0,1,18.94-24.35c7.15-6.9,14-10.53,20.58-11.09C638.05,192,634.16,198.19,627.64,206.79Zm-270.25-9.41,0,.05v-.05ZM252.55,69.73v-.49a36.4,36.4,0,0,0-8.42-22.06,42,42,0,0,0-20.41-13.36h0l-.16,0-.1,0h0a23.16,23.16,0,0,0-6.88-1.05,16.29,16.29,0,0,0-4.78.71A12.7,12.7,0,0,0,205,38.46,11.78,11.78,0,0,0,203.07,45v.45l.05.46c.74,6.76,1.09,11.32,1.08,12.79A70.35,70.35,0,0,1,201.05,79l-.08.26-.07.3a908.62,908.62,0,0,1-50.22,153.77l0,.1-.06.16a500.65,500.65,0,0,1-38.34,78l-.1.16-.11.2c-.42.78-.86,1.53-1.31,2.26q-2.1-5.81-3.55-10.23A1293.44,1293.44,0,0,1,69.83,117.67v-.07l0-.19A38.14,38.14,0,0,0,61.9,99.05,41.19,41.19,0,0,0,45.51,87.16a23.62,23.62,0,0,0-10.59-2.84,15.31,15.31,0,0,0-6,1.19,12.85,12.85,0,0,0-6.51,6.14A14.53,14.53,0,0,0,21,98.1a25.18,25.18,0,0,0,.2,2.66c.72,6.4,3.63,25.08,8.69,57h0v0a1215.94,1215.94,0,0,0,26.39,125c4.78,19.6,10.8,36,18.39,49.24S91.57,355.56,103,362.21l.06,0,.14.08c6,3.25,11.93,5.6,18.76,5.65a48.83,48.83,0,0,0,6.29-.55l.18,0,.16,0c5.09-1,8.18-3.28,11.28-5.89a69.54,69.54,0,0,0,9.22-10.18v0a190.87,190.87,0,0,0,19.48-31.13,990.68,990.68,0,0,0,77.66-208.55A163.51,163.51,0,0,0,252.55,69.73Zm-84,250.5,0-.08h0Zm206.66-32.06,0,0h0Zm-43.47-50.62h0c-.59-.3-1.18-.58-1.78-.86-9.91,10.4-28.5,28.95-40.7,31.05a29.1,29.1,0,0,1-9.51-9.17,2.49,2.49,0,0,1-.39-.14s.1,0,.31,0c-.4-.6-.8-1.21-1.18-1.87-3.28-5.59,3.36-.47,13.4-3.8,11.06-3.67,21.73-12.18,28.71-18.33-.1,0,.39-.27.28-.28a77.68,77.68,0,0,0,14.84-25.11h0a34.63,34.63,0,0,0,2.51-12.92A35.72,35.72,0,0,0,336,183.94l-.14-.36-.18-.39A46.6,46.6,0,0,0,306.36,158a52.4,52.4,0,0,0-15.49-2.42A54.11,54.11,0,0,0,266,161.83l-.22.11-.21.12c-14.95,8.49-26.23,20.5-32.86,35.34a88.66,88.66,0,0,0-8.29,37.13,91.41,91.41,0,0,0,1.89,18.24c-.3-.6,2,7.44,2,7,4,10.89,11.68,20.54,22.29,28.43a65.26,65.26,0,0,0,39.92,13.23c2.25,0,4.16-.14,5.87-.25l.36,0,.37-.05a78,78,0,0,0,41.42-18,45.18,45.18,0,0,0,9.42-9.88,21.72,21.72,0,0,0,4-12c.05-5.31-2.49-10.37-6.15-14.12S337.4,240.23,331.77,237.55Zm-36.13-46.49a44.42,44.42,0,0,1-10,18.22,37.19,37.19,0,0,1-15.93,10.87C274.56,208.38,283.22,198.64,295.64,191.06Z"/></clipPath><linearGradient id="linear-gradient" x1="2.82" y1="193.94" x2="723.86" y2="193.94" gradientUnits="userSpaceOnUse"><stop offset="0" stop-color="#006dff"/><stop offset="0.11" stop-color="#0072f6"/><stop offset="0.28" stop-color="#0080df"/><stop offset="0.5" stop-color="#0097b9"/><stop offset="0.75" stop-color="#00b684"/><stop offset="1" stop-color="#00d949"/></linearGradient></defs><title>veeta logo</title><text class="cls-2" transform="translate(252.53 352.89) scale(1.11 1)">Y<tspan class="cls-3" x="29.51" y="0">ea</tspan><tspan class="cls-4" x="91.66" y="0">r</tspan><tspan class="cls-3" x="115.67" y="0">n to Ea</tspan><tspan class="cls-4" x="305.82" y="0">r</tspan><tspan class="cls-5" x="329.82" y="0">n</tspan></text><g class="cls-6"><rect class="cls-7" x="2.82" y="2.25" width="721.04" height="383.39"/></g></svg>